<svg xmlns="http://www.w3.org/2000/svg" viewBox="0 0 1600 1000" preserveAspectRatio="xMidYMid slice">
  <!-- Flowing field composed from a traditional Japanese "kumo" cloud silhouette.
       Source shape: "red cloud" by Vedran via OpenClipart / freesvg.org, CC0 1.0
       (public domain). Recoloured to black + repeated; used as a CSS alpha mask
       over the theme accent, so opacity here drives the ink-wash tonal depth. -->
  <symbol id="kumo" viewBox="0 0 516.22 406.36">
    <g transform="translate(-475.23 -310.16)">
      <path fill="#000" d="m837.29 314.44c-63.002-17.372-128.13 19.603-145.51 82.606-1.4325 5.1949-2.4948 10.42-3.204 15.616-5.5275-3.2392-11.557-5.845-18.027-7.6289-39.931-11.011-81.228 12.434-92.238 52.365-3.1759 11.517-3.4632 23.137-1.3373 34.122-45.561 4.7884-85.28 35.711-97.814 81.169-16.516 59.897 20.411 122.33 82.494 139.45 47.675 13.146 96.33-4.2477 123.82-40.157 14.473 16.857 33.848 29.826 56.811 36.379 47.623 13.59 96.75-4.2653 125.27-41.213 6.2469 3.7633 13.088 6.7532 20.463 8.7869 43.481 11.989 88.473-13.554 100.46-57.034 7.4934-27.175 0.30688-54.938-16.734-74.86 1.6953-3.6752 3.1477-7.5358 4.2588-11.565 11.011-39.931-12.434-81.228-52.365-92.238-0.01-0.003-0.0201-0.005-0.0301-0.009 5.6713-56.342-29.9-110.23-86.326-125.79z"/>
    </g>
  </symbol>

  <!-- bottom-weighted rising flow -->
  <use href="#kumo" x="-80"  y="620" width="640" height="504" opacity="0.9"/>
  <use href="#kumo" x="200"  y="760" width="520" height="409" opacity="0.62"/>
  <use href="#kumo" x="120"  y="430" width="420" height="330" opacity="0.4"/>
  <use href="#kumo" x="620"  y="650" width="520" height="409" opacity="0.72"/>
  <use href="#kumo" x="980"  y="730" width="400" height="315" opacity="0.5"/>
  <!-- top-right counter-flow -->
  <use href="#kumo" x="1080" y="-40" width="560" height="441" opacity="0.85"/>
  <use href="#kumo" x="860"  y="90"  width="420" height="330" opacity="0.5"/>
  <use href="#kumo" x="1240" y="240" width="460" height="362" opacity="0.4"/>
  <!-- mid connective drift -->
  <use href="#kumo" x="520"  y="220" width="360" height="283" opacity="0.3"/>
  <use href="#kumo" x="1180" y="560" width="380" height="299" opacity="0.45"/>
</svg>
